<svg version="1.0" xmlns="http://www.w3.org/2000/svg"
 width="310.000000pt" height="301.000000pt" viewBox="0 0 310.000000 301.000000"
 preserveAspectRatio="xMidYMid meet">

<g transform="translate(0.000000,301.000000) scale(0.100000,-0.100000)"
fill="#000000" stroke="none">
<path d="M1426 2994 c-43 -8 -131 -36 -195 -63 -138 -58 -176 -69 -284 -81
-45 -5 -103 -17 -130 -27 l-49 -17 -17 23 c-16 21 -24 23 -64 19 -26 -3 -81
-22 -123 -42 -78 -37 -83 -37 -121 -3 -22 19 -22 19 -67 -7 -77 -45 -222 -263
-242 -364 l-6 -32 67 45 c37 25 73 44 79 42 6 -2 15 -23 19 -48 5 -24 11 -57
15 -73 l7 -30 40 55 c69 95 116 149 133 149 8 0 23 -7 33 -16 16 -14 21 -13
66 19 76 54 82 54 138 -3 27 -28 54 -50 60 -50 6 0 32 18 59 40 51 42 93 57
231 83 44 8 127 35 185 59 204 87 311 90 503 14 74 -29 146 -50 192 -56 108
-14 122 -18 214 -68 94 -50 81 -53 134 23 10 14 23 25 30 25 7 0 40 -25 75
-56 l63 -57 30 29 31 29 33 -40 c19 -22 60 -84 93 -138 66 -108 64 -108 77 6
5 37 12 57 19 54 63 -23 118 -38 124 -33 7 8 -64 156 -111 231 -55 88 -111
158 -141 176 -29 18 -31 18 -63 -2 l-34 -21 -35 29 c-61 48 -117 83 -135 83
-10 0 -33 -18 -51 -41 l-35 -41 -74 27 c-41 15 -128 37 -194 51 -66 13 -174
41 -240 63 -144 47 -230 56 -339 35z m239 -28 c33 -8 94 -28 136 -45 74 -30
98 -36 244 -61 39 -7 99 -24 134 -37 65 -26 177 -88 187 -105 3 -5 -12 -28
-33 -51 -21 -23 -50 -58 -64 -77 l-26 -35 -60 38 c-62 37 -99 48 -234 66 -44
6 -108 24 -155 44 -214 92 -356 86 -587 -23 -45 -22 -99 -37 -164 -46 -110
-17 -147 -30 -214 -80 l-48 -35 -46 42 c-26 24 -55 56 -67 71 -18 26 -19 31
-4 52 19 29 139 109 186 125 19 6 76 15 127 20 59 6 114 19 155 36 196 84 250
104 285 108 88 9 192 6 248 -7z m743 -110 c29 -15 112 -99 155 -155 l25 -35
-55 -63 c-30 -35 -61 -63 -67 -63 -7 0 -37 24 -69 53 l-57 52 25 30 c31 38 31
48 0 123 -14 34 -25 64 -25 67 0 10 42 5 68 -9z m-1683 -83 c-45 -39 -58 -27
-29 28 15 30 16 30 36 13 20 -19 20 -19 -7 -41z m1610 36 c4 -11 4 -23 1 -27
-10 -9 -39 25 -32 37 11 17 24 13 31 -10z m-1658 -11 c-45 -107 -57 -142 -50
-147 4 -3 14 -13 21 -22 11 -14 4 -21 -48 -52 l-60 -36 -60 56 c-33 30 -60 61
-60 68 0 14 66 77 101 96 36 19 122 48 143 49 11 0 16 -5 13 -12z m1923 -54
c0 -28 -10 -36 -27 -23 -16 14 -17 56 0 62 15 5 27 -11 27 -39z m-2150 21 c10
-12 10 -18 0 -30 -19 -23 -40 -18 -40 8 0 38 18 48 40 22z m2252 -76 c55 -72
154 -247 144 -256 -3 -3 -28 3 -56 12 -28 9 -53 15 -56 13 -2 -3 -7 -33 -10
-67 -4 -35 -11 -60 -17 -58 -8 2 -127 193 -153 246 -5 10 5 25 29 46 35 30 37
36 37 89 0 42 3 57 13 54 6 -3 38 -38 69 -79z m-2312 11 c0 -57 2 -63 35 -91
40 -36 43 -49 15 -74 -10 -9 -37 -48 -60 -86 -22 -38 -45 -69 -50 -69 -4 0
-11 19 -15 43 -4 23 -11 52 -16 64 l-8 23 -57 -25 c-32 -14 -59 -23 -62 -21
-2 3 21 51 53 107 55 98 129 189 153 189 8 0 12 -21 12 -60z"/>
<path d="M1548 2930 c-4 -8 -8 -40 -11 -72 l-3 -56 33 -4 c19 -2 36 0 39 4 3
4 -6 8 -20 8 -24 0 -25 3 -28 68 -2 37 -6 60 -10 52z"/>
<path d="M1368 2917 c-37 -9 -55 -31 -21 -25 13 2 19 -9 28 -50 5 -29 15 -53
20 -53 12 1 12 2 1 65 -6 36 -4 51 5 57 22 13 6 16 -33 6z"/>
<path d="M1662 2858 c-16 -35 -24 -65 -19 -67 5 -2 14 4 19 13 13 23 27 20 38
-9 17 -44 28 -27 24 38 -7 109 -20 114 -62 25z m40 -3 c-2 -14 -8 -25 -13 -25
-10 0 -11 12 -3 34 10 25 22 19 16 -9z"/>
<path d="M1242 2878 c-24 -12 -24 -19 9 -95 17 -41 18 -42 48 -30 37 14 41 30
6 21 -31 -8 -47 22 -22 41 22 16 21 24 -2 18 -30 -8 -37 17 -10 38 27 21 9 25
-29 7z"/>
<path d="M1777 2828 c-20 -66 -15 -78 30 -78 25 0 46 31 37 54 -3 9 -1 16 5
16 6 0 11 11 11 25 0 18 -7 28 -26 35 -38 15 -38 15 -57 -52z m60 8 c-4 -9
-13 -13 -21 -10 -12 5 -13 10 -5 26 13 24 35 9 26 -16z m-17 -46 c0 -13 -7
-20 -19 -20 -14 0 -18 5 -14 20 3 11 12 20 19 20 8 0 14 -9 14 -20z"/>
<path d="M1889 2795 c-24 -54 -18 -82 18 -91 32 -8 59 20 69 72 8 41 -8 64
-43 64 -19 0 -28 -9 -44 -45z m65 16 c10 -15 -20 -86 -37 -89 -20 -4 -22 20
-6 67 11 30 32 41 43 22z"/>
<path d="M1111 2823 c-21 -4 -23 -8 -16 -51 10 -76 14 -82 45 -82 38 0 48 18
13 22 -35 4 -42 33 -11 43 l23 7 -25 7 c-31 9 -33 35 -2 39 12 2 22 8 22 13 0
9 -8 10 -49 2z"/>
<path d="M2001 2760 c-8 -41 -9 -66 -3 -72 7 -7 12 1 17 22 9 41 40 38 40 -4
0 -16 6 -31 14 -34 10 -3 12 5 9 37 -2 22 -1 41 3 41 4 0 10 8 13 17 9 22 -11
41 -50 49 l-31 6 -12 -62z m66 24 c6 -16 -15 -37 -29 -28 -4 3 -8 14 -8 25 0
23 28 26 37 3z"/>
<path d="M965 2790 c-10 -16 18 -130 31 -130 7 0 24 4 38 10 29 11 34 44 15
99 -9 26 -16 31 -44 31 -19 0 -37 -4 -40 -10z m68 -49 c10 -39 4 -61 -17 -61
-8 0 -17 15 -20 36 -4 19 -10 42 -13 51 -4 11 0 14 18 11 16 -2 25 -12 32 -37z"/>
<path d="M2160 2776 c0 -2 -11 -29 -25 -60 l-25 -56 31 -16 c17 -8 34 -13 37
-9 6 6 -11 20 -31 28 -5 1 -5 11 -1 20 5 14 13 17 30 13 28 -7 31 2 7 19 -24
18 -10 49 16 35 24 -12 31 -13 31 -1 0 5 -14 14 -31 20 -35 12 -39 13 -39 7z"/>
<path d="M903 2705 c19 -58 37 -84 37 -53 0 28 -35 118 -46 118 -9 0 -6 -18 9
-65z"/>
<path d="M805 2733 c-16 -9 -31 -17 -33 -18 -8 -7 54 -115 65 -115 16 0 16 2
1 35 -10 22 -9 28 8 41 18 15 18 15 -7 10 -19 -4 -29 -1 -33 10 -8 22 -8 24 8
24 14 0 32 18 25 25 -2 2 -17 -4 -34 -12z"/>
<path d="M2434 2678 l-29 -33 33 29 c30 28 37 36 29 36 -2 0 -16 -15 -33 -32z"/>
<path d="M2451 2666 c-24 -25 -31 -38 -24 -50 7 -13 16 -9 53 29 24 24 41 47
38 50 -3 3 -22 -13 -42 -35 -20 -22 -39 -40 -43 -40 -3 0 2 10 13 23 54 61 58
77 5 23z"/>
<path d="M2485 2633 l-48 -58 53 52 c30 29 52 55 48 58 -3 3 -27 -20 -53 -52z"/>
<path d="M2500 2618 l-53 -63 61 60 c34 33 62 61 62 62 0 15 -26 -7 -70 -59z"/>
<path d="M554 2672 c17 -18 34 -32 38 -32 15 0 0 18 -35 41 l-32 22 29 -31z"/>
<path d="M481 2684 c4 -11 89 -90 89 -82 0 2 -21 24 -46 48 -26 25 -45 40 -43
34z"/>
<path d="M540 2655 c19 -19 36 -35 39 -35 3 0 -10 16 -29 35 -19 19 -36 35
-39 35 -3 0 10 -16 29 -35z"/>
<path d="M460 2672 c0 -5 24 -28 53 -52 l52 -43 -50 51 c-52 55 -55 57 -55 44z"/>
<path d="M439 2657 c8 -10 37 -36 65 -59 l51 -42 -35 38 c-38 41 -106 94 -81
63z"/>
<path d="M2687 2535 c-50 -40 -56 -48 -47 -65 14 -26 15 -25 60 10 23 18 44
28 54 24 9 -3 13 -10 10 -15 -3 -5 3 -6 12 -2 12 4 15 3 10 -5 -5 -8 -1 -10
10 -5 11 4 13 8 6 11 -7 2 -10 8 -6 13 3 5 0 9 -6 9 -6 0 -9 4 -6 9 3 4 -1 17
-9 27 -11 15 -16 17 -26 7 -7 -7 -18 -13 -23 -13 -6 1 0 10 13 20 47 40 4 19
-52 -25z m78 5 c-3 -5 0 -10 7 -10 10 0 9 -3 -2 -9 -8 -6 -18 -7 -22 -5 -5 3
-26 -9 -49 -27 -22 -17 -42 -29 -45 -27 -2 3 19 24 48 46 52 40 75 52 63 32z
m-75 -30 c-19 -16 -39 -29 -45 -29 -5 0 6 13 25 29 19 16 40 29 45 29 6 0 -6
-13 -25 -29z"/>
<path d="M2676 2445 c-11 -8 -14 -15 -8 -15 7 0 11 -3 11 -7 -4 -27 1 -35 16
-23 10 9 12 17 5 30 -5 9 -6 20 -3 24 11 11 -2 6 -21 -9z"/>
<path d="M295 2577 c34 -30 27 -35 -12 -9 -19 12 -25 13 -18 3 6 -11 4 -13
-10 -7 -16 6 -16 4 -4 -11 12 -15 12 -16 -5 -10 -17 7 -17 6 -5 -10 13 -15 12
-16 -6 -9 -14 5 -17 4 -9 -4 12 -12 47 -3 38 11 -3 5 0 9 6 9 6 0 8 5 5 10
-11 18 4 11 54 -25 48 -35 67 -44 57 -26 -4 5 -1 11 5 13 11 4 -22 28 -96 73
l-30 18 30 -26z m65 -47 c14 -11 21 -20 15 -20 -5 0 -21 9 -35 20 -14 11 -20
20 -15 20 6 0 21 -9 35 -20z"/>
<path d="M346 2484 c17 -14 17 -15 1 -10 -11 3 -16 2 -12 -4 3 -6 1 -10 -6
-10 -10 0 -10 -2 0 -12 10 -11 15 -9 27 6 14 20 4 46 -19 46 -6 0 -2 -7 9 -16z"/>
<path d="M1300 2486 c-5 -5 -10 -25 -10 -43 0 -22 -5 -33 -14 -33 -8 0 -21 -3
-30 -6 -11 -4 -16 0 -16 14 0 11 -3 27 -6 36 -7 18 -49 22 -59 6 -4 -6 -16 -8
-26 -5 -11 4 -26 1 -34 -5 -8 -6 -19 -9 -25 -5 -5 3 -19 3 -30 0 -28 -9 -30
-95 -2 -95 9 0 23 -10 31 -22 21 -33 39 -112 34 -142 -4 -21 -2 -26 15 -26 22
0 42 -43 42 -91 0 -16 4 -29 9 -29 5 0 30 -10 57 -21 l48 -22 -74 -38 -75 -38
-35 37 c-19 20 -45 50 -57 65 -20 26 -25 28 -68 21 -36 -5 -49 -12 -58 -31 -9
-21 -15 -23 -48 -18 -72 12 -139 -55 -139 -140 0 -66 88 -123 128 -83 17 17
23 7 43 -79 16 -68 17 -79 4 -93 -8 -9 -15 -25 -15 -34 0 -10 -9 -29 -20 -43
-25 -32 -25 -55 0 -78 11 -10 20 -29 20 -42 0 -31 -29 -88 -39 -77 -12 14 -31
111 -31 154 0 21 -4 42 -10 45 -5 3 -10 21 -10 39 0 17 -4 36 -8 41 -5 6 -14
30 -21 55 -7 25 -25 68 -39 95 l-25 50 -12 -60 c-6 -33 -17 -71 -24 -84 l-13
-23 -19 31 c-10 17 -21 41 -25 54 -8 33 -94 122 -141 146 -22 11 -45 27 -52
35 -40 49 -53 -12 -26 -118 9 -33 14 -61 11 -63 -2 -2 -19 14 -37 37 -18 22
-36 37 -40 33 -3 -5 -3 -51 2 -103 11 -127 12 -132 32 -160 17 -24 23 -50 11
-50 -3 0 -19 9 -36 21 -16 12 -31 20 -33 17 -2 -2 7 -44 20 -93 13 -51 19 -91
14 -93 -6 -3 -5 -9 1 -17 6 -7 31 -53 56 -102 25 -48 52 -91 60 -96 21 -12 17
-26 -6 -20 -31 8 -23 -9 20 -42 21 -16 39 -36 40 -42 0 -7 14 -19 30 -28 17
-9 30 -19 30 -24 0 -4 28 -11 63 -15 45 -4 67 -11 79 -26 9 -11 21 -20 27 -20
6 0 11 -6 11 -14 0 -10 -19 -16 -65 -21 -81 -9 -85 -27 -12 -50 28 -10 57 -24
64 -32 6 -8 24 -18 40 -22 l28 -8 -27 -11 c-16 -7 -28 -16 -28 -21 0 -5 -13
-14 -29 -21 -35 -14 -71 -46 -71 -64 0 -10 14 -10 67 -3 48 7 80 6 115 -2 62
-16 209 -15 250 2 30 12 20 13 -99 11 -82 -2 -133 0 -133 6 0 6 -15 10 -32 11
-18 1 -44 4 -58 9 -23 7 -24 8 -6 15 11 5 27 16 37 26 29 29 83 34 155 14 35
-9 67 -21 70 -26 3 -5 17 -9 32 -9 34 0 18 14 -35 29 -24 6 -43 16 -43 21 0 6
-18 10 -40 10 -22 0 -40 4 -40 10 0 5 -27 12 -59 16 -38 4 -62 12 -65 21 -3 8
-22 21 -41 29 -20 8 -33 18 -31 23 9 15 251 8 269 -7 10 -9 27 -11 46 -7 33 7
85 -16 136 -60 23 -20 25 -25 10 -21 -99 26 -247 57 -256 54 -6 -2 55 -21 135
-42 80 -22 146 -43 146 -47 0 -4 -24 -12 -52 -17 l-53 -10 50 -2 c28 -2 56 -3
62 -3 25 1 2 -15 -92 -68 -53 -29 -94 -57 -92 -63 2 -6 26 -17 54 -25 l50 -13
81 56 c77 54 83 56 104 42 21 -14 30 -13 101 11 42 15 80 24 83 20 11 -11 -7
-27 -32 -27 -29 0 -74 -41 -74 -67 1 -35 28 -56 84 -64 30 -4 63 -10 74 -13
12 -4 26 -1 35 9 17 16 32 21 23 6 -9 -13 86 0 112 15 15 10 22 24 22 48 0 42
-26 66 -73 66 -26 0 -37 4 -37 15 0 18 8 18 67 3 39 -9 50 -9 78 6 31 17 34
17 76 -5 24 -12 69 -39 101 -60 48 -33 58 -36 68 -24 7 8 18 15 24 15 7 0 20
6 30 13 16 12 14 15 -26 42 -23 16 -88 53 -143 82 -55 29 -94 53 -86 53 8 0
11 3 8 7 -4 3 20 27 53 52 63 49 69 57 114 134 31 54 28 64 -4 12 -46 -75
-145 -175 -172 -175 -6 0 4 16 21 35 17 19 38 49 46 65 9 17 19 30 23 30 5 0
19 25 31 56 31 74 99 174 118 174 14 0 14 -2 0 -18 -13 -14 -17 -38 -17 -101
0 -124 -34 -183 -137 -242 -63 -36 -56 -48 15 -28 25 7 41 14 34 17 -31 10 6
22 66 21 100 0 204 -22 243 -50 l34 -24 -40 -6 c-38 -5 -39 -6 -13 -13 15 -4
25 -13 22 -20 -6 -16 -142 -16 -148 0 -2 6 -35 21 -73 32 -100 29 -121 33
-127 23 -7 -10 16 -21 45 -21 11 0 27 -9 36 -20 12 -14 30 -20 60 -20 30 0 45
-5 52 -18 7 -14 22 -17 78 -17 38 1 75 5 83 11 8 5 35 16 59 25 25 8 46 20 48
25 2 5 -20 20 -49 33 -48 21 -51 23 -30 31 12 5 29 7 38 3 8 -3 25 3 37 15 12
11 40 25 62 32 86 27 85 26 20 55 -33 16 -62 30 -64 32 -12 10 56 62 95 73 25
7 49 21 55 31 5 10 27 24 49 30 21 7 39 15 38 18 -3 27 9 47 56 96 l54 55 -50
0 c-27 0 -58 5 -68 10 -14 8 -30 6 -56 -5 -36 -15 -74 -20 -74 -10 0 3 7 17
16 30 14 21 24 25 65 25 26 0 51 5 54 10 3 6 28 10 54 10 31 0 53 5 61 15 7 8
20 15 29 15 9 0 40 27 69 60 l53 60 -105 0 c-61 0 -106 4 -106 10 0 8 61 30
87 30 6 0 17 16 23 35 6 19 18 35 26 35 8 0 14 9 14 20 0 12 9 38 20 60 11 22
20 43 20 49 0 5 -27 0 -61 -10 -33 -10 -68 -19 -78 -19 -9 0 -21 -10 -26 -22
-6 -13 -17 -24 -27 -26 -14 -3 -15 3 -11 40 3 24 12 65 18 92 12 46 11 54 -13
110 -14 34 -27 63 -29 66 -2 2 -21 -12 -41 -33 -20 -20 -49 -46 -65 -58 -20
-15 -26 -26 -21 -43 3 -13 -2 -40 -10 -61 -9 -21 -16 -55 -16 -77 0 -24 -4
-37 -10 -33 -5 3 -10 17 -10 31 0 19 -5 24 -25 24 -21 0 -25 5 -25 30 0 29 -2
30 -35 28 -19 -1 -40 3 -47 10 -23 23 -37 12 -44 -34 -4 -31 -3 -49 5 -53 7
-4 11 -24 9 -44 -1 -20 3 -42 10 -49 17 -17 15 -58 -2 -58 -19 0 -37 -52 -45
-130 -7 -73 -12 -77 -87 -65 -34 5 -44 11 -44 25 0 28 11 50 25 50 7 0 16 17
20 38 4 21 20 51 38 69 l31 33 -26 27 c-15 16 -32 41 -37 56 -6 16 -20 31 -31
34 -23 6 -23 4 -9 94 7 38 17 69 23 69 6 0 27 -5 46 -10 32 -9 37 -8 58 15 15
18 22 39 22 65 0 36 -4 41 -57 74 -32 20 -62 36 -69 36 -6 0 -30 18 -53 40
-23 22 -47 40 -54 40 -7 0 -48 -21 -92 -46 l-79 -47 -33 18 c-18 10 -33 22
-33 26 0 9 63 39 90 43 8 2 16 9 17 17 10 76 15 90 39 99 25 10 31 29 15 45
-5 6 -5 35 -1 67 8 58 27 96 45 94 6 0 11 20 13 47 2 33 -1 47 -10 48 -7 1
-24 4 -38 6 -14 2 -36 5 -50 7 -14 1 -33 6 -44 11 -26 11 -50 -6 -54 -39 -5
-39 -22 -32 -22 9 0 22 -6 38 -15 41 -8 3 -58 7 -112 7 -91 2 -98 1 -101 -18
-2 -18 -2 -18 8 -3 14 23 40 12 40 -17 0 -21 -5 -23 -44 -23 -43 0 -45 1 -48
31 l-3 32 -112 1 c-63 0 -117 -4 -123 -10z m105 -31 c0 -23 -5 -31 -22 -33
-19 -3 -23 1 -23 26 0 33 8 44 30 40 9 -2 15 -14 15 -33z m63 2 c3 -23 0 -27
-22 -27 -21 0 -26 5 -26 23 0 13 3 27 7 31 15 14 38 0 41 -27z m60 0 c3 -23 0
-27 -22 -27 -21 0 -26 5 -26 23 0 13 3 27 7 31 15 14 38 0 41 -27z m-180 -9
c-2 -25 -8 -34 -25 -36 -20 -3 -23 1 -23 32 0 32 3 36 26 36 23 0 25 -3 22
-32z m332 1 c0 -24 -3 -30 -16 -25 -9 3 -18 6 -20 6 -2 0 -4 11 -4 25 0 18 5
25 20 25 16 0 20 -7 20 -31z m60 1 c0 -23 -4 -30 -20 -30 -16 0 -20 7 -20 30
0 23 4 30 20 30 16 0 20 -7 20 -30z m58 7 c6 -30 -5 -46 -27 -40 -21 5 -29 41
-14 57 12 12 38 1 41 -17z m92 -22 c0 -28 -4 -35 -19 -35 -26 0 -34 15 -27 46
4 15 14 24 26 24 16 0 20 -7 20 -35z m-672 -7 c3 -24 0 -28 -22 -28 -22 0 -26
4 -26 31 0 26 3 30 23 27 16 -2 23 -11 25 -30z m742 -7 c0 -34 -6 -40 -31 -34
-22 6 -27 58 -6 66 22 8 37 -5 37 -32z m-815 -7 c0 -22 -5 -30 -22 -32 -20 -3
-23 1 -23 26 0 29 13 43 35 38 6 -2 10 -16 10 -32z m-57 -11 c2 -21 -2 -32
-13 -37 -24 -9 -35 1 -35 34 0 49 43 52 48 3z m932 1 c0 -31 -3 -35 -22 -32
-39 5 -37 68 2 68 16 0 20 -6 20 -36z m-512 -6 c-5 -16 -158 -24 -158 -9 0 13
25 18 98 20 47 1 63 -2 60 -11z m82 2 c0 -5 -16 -10 -35 -10 -19 0 -35 5 -35
10 0 6 16 10 35 10 19 0 35 -4 35 -10z m118 4 c77 -10 63 -24 -23 -24 -60 0
-75 3 -75 15 0 17 17 18 98 9z m-370 -16 c-5 -15 -88 -24 -88 -9 0 9 25 16 73
20 11 0 17 -4 15 -11z m507 -9 c4 -6 5 -12 4 -13 -8 -7 -69 7 -69 15 0 13 57
11 65 -2z m-605 -9 c0 -5 -1 -10 -2 -10 -2 -1 -36 -7 -76 -14 -66 -11 -99 -7
-72 9 30 18 150 30 150 15z m368 -37 c3 -39 1 -43 -20 -44 l-23 0 23 -11 c25
-12 30 -48 7 -48 -8 0 -15 7 -15 15 0 8 -7 15 -15 15 -8 0 -15 5 -15 10 0 6
-8 10 -17 10 -13 0 -14 -3 -5 -12 18 -18 15 -28 -9 -28 -18 0 -20 5 -17 48 2
36 7 47 20 47 9 0 20 4 24 8 4 4 -2 7 -14 7 -22 0 -28 10 -15 24 4 4 25 6 48
4 39 -3 40 -4 43 -45z m358 27 c15 -6 24 -13 21 -16 -8 -9 -127 18 -127 29 0
11 63 3 106 -13z m-616 0 c0 -5 -9 -10 -20 -10 -11 0 -20 -5 -20 -11 0 -7 10
-9 25 -5 21 5 25 3 25 -18 0 -13 3 -38 6 -55 8 -38 -13 -42 -58 -10 -22 16
-32 19 -41 10 -8 -8 -8 -11 1 -11 7 0 12 -7 12 -15 0 -8 -7 -15 -15 -15 -8 0
-15 8 -15 19 0 10 -3 33 -6 50 -6 28 -4 31 20 31 14 0 26 5 26 10 0 6 -11 8
-25 4 -15 -4 -25 -2 -25 4 0 6 17 14 38 17 38 6 65 12 70 14 1 0 2 -3 2 -9z
m140 -55 l0 -65 -54 0 -53 0 -7 46 c-11 86 -13 84 54 84 l60 0 0 -65z m253 58
c5 -8 -11 -124 -17 -131 -2 -1 -27 0 -55 4 l-51 7 0 63 0 64 59 0 c33 0 62 -3
64 -7z m76 -9 c17 -4 31 -10 31 -15 0 -5 -7 -6 -15 -3 -8 4 -15 1 -15 -5 0 -6
7 -11 15 -11 11 0 15 -12 15 -50 0 -44 -3 -50 -21 -50 -11 0 -17 5 -14 10 3 6
-3 10 -14 10 -12 0 -21 -5 -21 -11 0 -6 -8 -9 -17 -7 -27 5 -22 31 7 39 21 6
11 14 -13 10 -5 -1 -7 11 -5 26 2 19 10 29 28 34 24 7 24 7 3 8 -13 1 -23 6
-23 11 0 12 15 13 59 4z m-587 -70 c3 -52 1 -57 -21 -66 -14 -5 -38 -8 -55 -6
-27 3 -31 8 -42 53 -7 27 -11 51 -9 54 6 5 72 18 102 20 19 1 22 -5 25 -55z
m730 38 c6 -6 -7 -110 -14 -118 -2 -1 -22 0 -46 3 -40 5 -42 7 -42 38 0 18 3
47 6 65 7 31 8 32 48 26 23 -4 44 -10 48 -14z m-93 -125 c47 -6 86 -17 88 -22
2 -8 -24 -7 -79 2 -181 29 -578 27 -730 -3 -16 -3 -28 -1 -28 5 0 37 534 50
749 18z m-191 -24 c2 -7 13 -13 25 -12 21 0 21 1 2 10 -13 6 8 7 60 3 90 -7
175 -21 136 -23 -23 -1 -24 -2 -7 -14 26 -19 13 -59 -17 -52 -52 11 -190 26
-299 32 -65 3 -118 10 -118 15 0 4 -9 8 -21 8 -11 0 -17 -5 -14 -10 4 -6 11
-7 17 -4 6 4 8 3 5 -3 -4 -5 -46 -13 -94 -16 -48 -4 -106 -9 -128 -12 -22 -2
-32 -2 -22 1 9 3 17 10 17 15 0 6 -9 7 -20 4 -28 -9 -47 36 -20 47 36 13 210
21 210 9 0 -6 9 -11 20 -11 14 0 18 5 13 16 -5 14 9 15 122 12 91 -2 130 -7
133 -15z m104 -89 c62 -8 118 -20 123 -26 7 -7 -1 -9 -25 -5 -245 40 -427 44
-615 13 -44 -8 -82 -12 -84 -10 -40 37 393 57 601 28z m-282 -22 c0 -4 -16
-31 -35 -61 -19 -29 -35 -55 -35 -57 0 -2 45 -4 100 -4 l99 0 -28 43 c-16 23
-32 52 -35 65 -7 21 -5 22 44 22 46 0 58 -5 99 -38 25 -21 74 -57 107 -80 60
-40 62 -41 79 -22 27 29 139 84 158 77 25 -10 21 -23 -13 -37 -16 -7 -35 -19
-42 -28 -11 -13 -10 -14 11 -7 20 6 23 5 17 -10 -4 -13 -2 -16 9 -11 10 3 14
-1 13 -12 -4 -51 1 -55 34 -22 33 34 74 54 89 44 15 -9 10 -21 -11 -27 -41
-10 -99 -189 -86 -260 6 -31 11 -36 39 -39 27 -2 33 -8 35 -31 2 -15 12 -32
23 -37 28 -16 23 -43 -11 -63 -24 -15 -30 -25 -30 -53 0 -32 -2 -34 -35 -34
l-35 0 0 -99 c0 -89 -2 -100 -19 -106 -10 -3 -26 -14 -36 -25 -10 -11 -23 -20
-29 -20 -8 0 -11 105 -11 357 l0 358 -440 0 -440 0 -5 -340 -5 -340 -31 -1
-30 -2 0 102 c1 100 1 101 -24 104 -62 7 -69 11 -76 49 -4 21 -16 45 -28 54
-21 17 -21 17 -2 38 11 12 24 31 30 44 7 13 23 23 39 25 23 3 27 8 27 35 0 47
-46 209 -74 266 -14 27 -37 58 -52 70 -23 18 -24 21 -8 21 25 0 71 -31 100
-67 13 -15 21 -20 18 -11 -4 13 2 21 22 29 26 9 31 7 51 -16 13 -14 23 -22 23
-17 0 12 -52 83 -73 101 -20 16 -22 41 -5 41 7 0 41 -30 75 -66 58 -62 65 -66
95 -60 43 8 218 103 224 122 2 8 6 21 9 29 3 11 19 15 60 15 30 0 55 -3 55 -8z
m-140 -21 c0 -30 -14 -33 -60 -15 -48 19 -38 34 23 34 30 0 37 -4 37 -19z
m468 4 c9 -9 -3 -14 -43 -20 -32 -4 -45 -1 -65 15 l-25 22 64 -6 c35 -3 67 -8
69 -11z m-249 -82 c1 -14 -94 -19 -103 -5 -2 4 4 26 15 47 16 34 19 36 15 13
-2 -22 1 -28 15 -28 15 0 19 8 20 33 l0 32 19 -40 c10 -22 19 -46 19 -52z
m-715 -50 c38 -40 124 -323 99 -323 -5 0 -17 35 -27 78 -39 166 -114 279 -152
227 -18 -24 -18 -40 2 -59 20 -21 34 -20 33 2 0 10 -3 12 -6 4 -7 -17 -23 -5
-23 18 0 25 15 33 40 20 15 -8 20 -21 20 -50 0 -22 -4 -40 -9 -40 -5 0 -16 -3
-25 -6 -24 -9 -66 40 -66 78 0 75 65 104 114 51z m1374 -29 c25 -17 27 -32 10
-69 -8 -18 -19 -25 -39 -25 -32 0 -48 32 -29 55 7 8 9 15 4 15 -35 -1 -64 -66
-71 -156 -7 -87 -23 -110 -23 -33 0 83 27 164 67 199 38 34 50 36 81 14z
m-1795 -26 c18 -12 56 -41 85 -66 59 -49 67 -80 27 -99 -23 -10 -27 -9 -40 18
-22 42 -26 36 -9 -15 9 -25 14 -54 12 -66 -5 -34 -97 111 -108 172 -17 87 -15
90 33 56z m2187 -37 c16 -31 12 -59 -17 -108 -15 -25 -34 -73 -44 -107 -9 -34
-22 -60 -28 -58 -6 1 -14 -11 -17 -28 -4 -16 -10 -30 -14 -30 -12 0 -21 179
-10 198 6 9 16 37 23 61 7 24 21 49 32 55 10 6 25 17 33 24 19 17 30 15 42 -7z
m-690 -26 c0 -13 -53 -15 -415 -15 -362 0 -415 2 -415 15 0 13 53 15 415 15
362 0 415 -2 415 -15z m-2 -57 c-4 -10 -98 -14 -416 -16 -362 -2 -412 0 -412
13 0 13 52 15 416 15 328 0 415 -3 412 -12z m-1545 -38 c16 -23 36 -40 48 -40
12 0 19 -7 19 -20 0 -11 7 -20 15 -20 17 0 35 -30 35 -59 0 -29 -10 -26 -60
16 -30 26 -39 31 -31 16 6 -12 11 -24 11 -27 0 -12 -29 -5 -50 12 -19 15 -23
30 -26 90 -2 40 0 72 4 72 4 0 20 -18 35 -40z m229 -40 c4 0 8 -11 8 -24 0
-14 4 -27 9 -30 5 -3 7 -16 5 -29 -3 -13 0 -10 7 8 7 17 23 43 35 58 13 16 24
35 24 43 0 28 15 13 33 -34 10 -26 23 -56 29 -67 16 -28 38 -168 38 -242 l0
-62 -35 20 c-33 20 -35 20 -29 3 5 -14 2 -12 -11 5 -14 18 -16 34 -12 72 4 31
2 47 -3 44 -6 -4 -10 23 -10 67 -1 58 -3 69 -12 54 -7 -12 -9 -51 -5 -108 4
-54 2 -86 -4 -83 -21 13 -43 74 -49 135 l-7 65 -2 -57 c0 -36 6 -77 18 -108
28 -74 8 -61 -40 28 -24 42 -46 79 -51 80 -4 2 -5 8 -2 14 3 5 -1 15 -9 21
-21 17 -6 105 25 148 l23 31 9 -26 c6 -14 13 -26 18 -26z m806 23 c-3 -16 -19
-18 -158 -18 -139 0 -155 2 -158 18 -3 16 10 17 158 17 148 0 161 -1 158 -17z
m130 -85 l3 -98 84 0 85 0 0 -35 0 -35 -85 0 -85 0 0 -185 0 -185 -55 0 -55 0
0 185 0 184 -77 3 -78 3 -3 33 -3 32 80 0 81 0 0 93 c0 52 3 97 7 101 4 4 28
6 53 4 l45 -3 3 -97z m377 82 c0 -13 -26 -15 -164 -18 -158 -2 -192 3 -176 27
4 8 59 11 173 9 141 -3 167 -5 167 -18z m435 -14 c0 -6 11 -22 25 -36 73 -74
75 -79 74 -154 -1 -39 -4 -82 -9 -96 -6 -23 -8 -22 -14 15 -10 53 -54 178 -71
201 -13 17 -14 16 -6 -11 5 -16 19 -52 31 -80 24 -54 39 -188 23 -198 -5 -4
-15 23 -22 60 -13 70 -35 123 -51 123 -6 0 -10 14 -10 30 0 17 -4 30 -9 30
-10 0 -35 115 -28 127 8 13 67 3 67 -11z m260 -12 c0 -8 -4 -14 -10 -14 -5 0
-10 9 -10 21 0 11 5 17 10 14 6 -3 10 -13 10 -21z m-1200 -29 c0 -13 -24 -15
-160 -15 -136 0 -160 2 -160 15 0 13 24 15 160 15 136 0 160 -2 160 -15z m510
0 c0 -13 -26 -15 -175 -15 -149 0 -175 2 -175 15 0 13 26 15 175 15 149 0 175
-2 175 -15z m860 -5 c0 -5 -12 -35 -27 -65 -20 -40 -35 -57 -53 -62 -44 -10
-124 -54 -163 -90 -22 -19 -42 -31 -45 -28 -8 8 59 69 146 132 34 24 62 47 62
49 0 4 -66 -35 -113 -69 -16 -10 -30 -17 -33 -15 -11 12 43 89 66 95 14 3 37
14 51 24 49 34 109 50 109 29z m-215 -69 c-7 -21 -25 -58 -40 -81 -15 -24 -40
-72 -56 -107 -15 -34 -31 -63 -33 -63 -11 0 44 134 77 188 19 31 38 67 41 80
4 12 11 22 16 22 5 0 3 -17 -5 -39z m-1155 14 c0 -13 -24 -15 -160 -15 -136 0
-160 2 -160 15 0 13 24 15 160 15 136 0 160 -2 160 -15z m508 3 c-4 -10 -50
-14 -176 -16 -149 -2 -172 0 -172 13 0 13 25 15 176 15 136 0 175 -3 172 -12z
m-1494 -33 c15 -8 36 -15 46 -15 30 0 72 -41 95 -94 28 -64 42 -121 26 -112
-6 4 -11 15 -11 26 0 24 -67 103 -89 105 -17 1 -17 -1 2 -34 12 -20 31 -49 44
-64 45 -55 22 -48 -39 12 -35 34 -66 61 -71 61 -9 0 -57 98 -57 118 0 16 19
15 54 -3z m826 -25 c0 -18 -7 -20 -74 -20 -72 0 -94 8 -81 30 3 6 40 10 81 10
67 0 74 -2 74 -20z m665 0 c0 -12 -17 -16 -77 -18 -73 -3 -78 -2 -78 18 0 20
5 21 78 18 60 -2 77 -6 77 -18z m-1533 -73 c51 -38 146 -134 152 -155 5 -13 1
-22 -10 -26 -18 -7 -68 41 -122 118 -19 26 -36 45 -39 42 -4 -3 13 -32 35 -65
45 -63 48 -71 32 -71 -26 0 -78 67 -94 122 -9 31 -16 59 -16 63 0 10 28 -2 62
-28z m868 18 c0 -12 -16 -15 -80 -15 -64 0 -80 3 -80 15 0 12 16 15 80 15 64
0 80 -3 80 -15z m668 -2 c3 -10 -17 -13 -77 -13 -66 0 -81 3 -81 15 0 13 13
15 77 13 50 -2 78 -7 81 -15z m421 -9 c12 -15 21 -36 21 -48 -1 -18 -3 -17
-17 9 -8 17 -22 38 -31 48 -8 9 -10 17 -4 17 6 0 20 -12 31 -26z m-19 -54 c13
-27 27 -50 31 -50 4 0 10 -16 13 -35 7 -33 1 -56 -50 -205 -5 -13 -6 -13 -14
1 -5 9 -5 44 1 85 7 47 8 85 1 115 -9 42 -10 40 -11 -38 -1 -46 -5 -83 -9 -83
-12 0 -32 92 -32 143 0 56 18 117 34 117 7 0 23 -22 36 -50z m-910 5 c0 -13
-24 -15 -160 -15 -136 0 -160 2 -160 15 0 13 24 15 160 15 136 0 160 -2 160
-15z m510 0 c0 -13 -26 -15 -175 -15 -149 0 -175 2 -175 15 0 13 26 15 175 15
149 0 175 -2 175 -15z m870 7 c0 -10 -47 -53 -80 -74 -26 -16 -83 -26 -172
-32 -26 -1 -54 -8 -62 -16 -10 -7 -16 -8 -16 -2 0 21 50 49 110 62 33 7 59 15
56 17 -2 2 -32 -1 -65 -8 -34 -6 -64 -9 -67 -6 -3 3 16 19 42 36 46 29 55 31
152 31 56 0 102 -4 102 -8z m-712 -107 c2 -36 11 -92 21 -125 21 -66 102 -205
126 -214 19 -7 20 -26 1 -26 -17 0 -104 103 -118 140 -5 14 -18 43 -29 66 -20
42 -37 188 -25 219 12 31 22 6 24 -60z m-1154 57 c2 -4 7 -24 11 -45 6 -31 4
-37 -9 -37 -15 0 -46 53 -46 80 0 12 36 14 44 2z m484 -14 c3 -17 -9 -18 -152
-18 -92 0 -157 4 -161 10 -16 25 12 30 158 28 135 -3 152 -5 155 -20z m507 2
c0 -13 -27 -15 -172 -18 -140 -2 -173 0 -173 11 0 8 3 17 7 21 4 3 81 5 172 4
140 -3 166 -5 166 -18z m-938 -97 c-4 -84 -11 -127 -34 -193 -37 -104 -67
-166 -87 -173 -25 -10 -26 5 -2 37 60 80 93 188 103 340 3 53 10 96 16 96 6 0
8 -41 4 -107z m-287 76 c0 -5 -7 -9 -15 -9 -15 0 -20 12 -9 23 8 8 24 -1 24
-14z m190 -40 c0 -9 7 -22 15 -29 8 -7 15 -27 15 -44 0 -29 -20 -49 -72 -74
-12 -6 -9 27 3 50 7 12 13 40 14 62 2 32 1 36 -6 19 -5 -15 -14 -21 -24 -17
-12 5 -15 -4 -16 -52 0 -33 -3 -53 -6 -46 -2 6 -9 12 -15 12 -6 0 -3 -11 6
-25 18 -27 22 -115 5 -115 -15 0 -39 64 -39 103 0 54 27 119 67 159 37 38 52
37 53 -3z m530 6 c0 -13 -24 -15 -160 -15 -146 0 -173 4 -153 23 3 4 75 7 160
7 129 0 153 -2 153 -15z m505 5 c3 -5 4 -13 2 -17 -3 -5 -82 -7 -176 -5 -142
2 -171 5 -171 17 0 13 28 15 169 15 103 0 172 -4 176 -10z m-1503 -14 c18 -8
52 -20 76 -27 24 -7 63 -30 88 -52 43 -38 81 -94 70 -104 -3 -3 -36 17 -73 44
-124 89 -127 85 -8 -12 81 -67 105 -95 68 -80 -10 4 -42 15 -71 26 -61 21 -88
39 -111 72 -66 97 -81 122 -81 134 0 16 2 16 42 -1z m1838 -71 c21 -63 31
-125 20 -125 -4 0 -10 10 -14 23 -6 27 -65 121 -71 115 -3 -3 9 -30 26 -62 37
-67 32 -86 -6 -27 -15 22 -35 43 -45 46 -17 5 -33 60 -23 78 3 4 25 7 51 5 45
-3 45 -4 62 -53z m-1314 -27 c-4 -29 -12 -60 -17 -68 -8 -11 -9 -6 -5 20 4 19
9 52 13 73 9 57 16 36 9 -25z m244 47 c0 -11 -12 -15 -45 -15 -33 0 -45 4 -45
15 0 11 12 15 45 15 33 0 45 -4 45 -15z m40 5 c0 -5 -4 -10 -10 -10 -5 0 -10
5 -10 10 0 6 5 10 10 10 6 0 10 -4 10 -10z m50 0 c0 -5 -4 -10 -10 -10 -5 0
-10 5 -10 10 0 6 5 10 10 10 6 0 10 -4 10 -10z m50 0 c0 -5 -4 -10 -10 -10 -5
0 -10 5 -10 10 0 6 5 10 10 10 6 0 10 -4 10 -10z m90 -5 c0 -10 -11 -15 -35
-15 -24 0 -35 5 -35 15 0 10 11 15 35 15 24 0 35 -5 35 -15z m270 0 c0 -12
-13 -15 -55 -15 -42 0 -55 3 -55 15 0 12 13 15 55 15 42 0 55 -3 55 -15z m30
5 c0 -5 -4 -10 -10 -10 -5 0 -10 5 -10 10 0 6 5 10 10 10 6 0 10 -4 10 -10z
m50 0 c0 -5 -4 -10 -10 -10 -5 0 -10 5 -10 10 0 6 5 10 10 10 6 0 10 -4 10
-10z m50 0 c0 -5 -4 -10 -10 -10 -5 0 -10 5 -10 10 0 6 5 10 10 10 6 0 10 -4
10 -10z m110 -5 c0 -11 -12 -15 -45 -15 -33 0 -45 4 -45 15 0 11 12 15 45 15
33 0 45 -4 45 -15z m678 -31 c27 -8 22 -36 -14 -75 -13 -14 -24 -30 -24 -35 0
-6 -15 -15 -34 -22 -18 -7 -41 -21 -51 -32 -10 -11 -27 -20 -37 -20 -25 0 -50
-14 -89 -50 -18 -16 -34 -28 -36 -26 -13 13 50 82 127 140 49 38 90 73 90 78
0 12 -19 0 -125 -75 -49 -36 -92 -63 -94 -61 -3 3 1 10 7 16 7 7 12 21 12 31
0 30 35 80 69 100 17 10 54 20 82 22 28 1 53 6 56 9 8 8 32 7 61 0z m-1410
-31 c2 -9 -11 -13 -47 -13 -39 0 -51 4 -51 16 0 12 10 14 47 12 26 -2 48 -9
51 -15z m222 1 c0 -12 -10 -14 -52 -12 -74 4 -77 28 -4 28 44 0 56 -3 56 -16z
m270 1 c0 -12 -13 -15 -55 -15 -42 0 -55 3 -55 15 0 12 13 15 55 15 42 0 55
-3 55 -15z m240 0 c0 -12 -13 -15 -60 -15 -47 0 -60 3 -60 15 0 12 13 15 60
15 47 0 60 -3 60 -15z m230 -15 c0 -5 -4 -10 -10 -10 -5 0 -10 5 -10 10 0 6 5
10 10 10 6 0 10 -4 10 -10z m-1260 -20 c-11 -20 -30 -28 -30 -12 0 11 22 32
32 32 5 0 4 -9 -2 -20z m288 -17 c-2 -13 -14 -19 -41 -21 -32 -3 -37 0 -37 17
0 18 6 21 41 21 33 0 40 -3 37 -17z m230 0 c-2 -12 -14 -19 -36 -21 -27 -3
-32 0 -32 17 0 17 6 21 36 21 28 0 35 -3 32 -17z m267 -3 c0 -11 -13 -16 -44
-18 -45 -3 -68 8 -56 28 11 17 100 9 100 -10z m235 -1 c0 -17 -5 -20 -37 -17
-27 2 -39 8 -41 21 -3 14 4 17 37 17 35 0 41 -3 41 -21z m-630 -4 c0 -8 -9
-15 -20 -15 -11 0 -20 7 -20 15 0 8 9 15 20 15 11 0 20 -7 20 -15z m490 -1 c0
-9 -7 -14 -17 -12 -25 5 -28 28 -4 28 12 0 21 -6 21 -16z m483 -68 c50 -52 56
-73 11 -37 -43 34 -47 24 -6 -13 20 -19 35 -37 32 -40 -10 -10 -89 59 -110 97
-22 38 -18 50 7 20 14 -17 14 -17 8 2 -4 11 -9 29 -12 40 l-4 20 13 -20 c7
-11 34 -42 61 -69z m-1172 -5 c9 -36 18 -50 40 -60 25 -11 58 -54 103 -136 16
-27 17 -28 12 -5 -3 14 -6 30 -6 36 0 6 -11 23 -26 39 -14 15 -24 29 -22 31 5
4 156 -40 202 -60 22 -9 55 -28 74 -42 l33 -26 22 20 c34 32 102 58 211 81 54
12 107 26 118 32 10 6 24 8 31 5 7 -2 2 -8 -10 -11 -13 -4 -23 -13 -23 -20 0
-17 -46 -72 -70 -85 -13 -7 -27 -5 -49 7 -29 17 -31 17 -85 -10 -76 -36 -144
-43 -226 -22 -36 10 -83 18 -104 19 -35 1 -43 -3 -62 -32 l-22 -32 -46 51
c-42 47 -116 179 -116 208 0 6 -4 11 -9 11 -9 0 -1 -45 14 -85 8 -19 72 -119
112 -175 l18 -24 -34 19 c-57 34 -110 94 -122 139 -6 22 -14 56 -19 73 -5 19
-4 35 1 39 5 3 9 22 9 43 0 73 29 57 51 -28z m-211 40 c0 -55 -62 -133 -116
-147 -27 -7 -48 5 -25 14 28 10 101 85 108 111 8 33 12 41 24 41 5 0 9 -8 9
-19z m4 -98 c-17 -32 -39 -60 -56 -69 -50 -26 -53 -14 -8 29 28 26 53 61 65
92 16 40 20 45 23 27 2 -13 -9 -48 -24 -79z m536 82 c0 -13 -21 -15 -152 -13
-110 2 -152 6 -156 16 -3 9 32 12 152 12 133 0 156 -2 156 -15z m490 0 c0 -13
-25 -15 -165 -15 -140 0 -165 2 -165 15 0 13 25 15 165 15 140 0 165 -2 165
-15z m-1305 -5 c16 -7 12 -9 -20 -10 -44 -2 -40 -5 18 -15 21 -3 35 -10 32
-14 -7 -12 20 -21 63 -21 37 0 71 -14 61 -24 -19 -19 -169 -2 -182 20 -4 8
-16 14 -25 15 -9 0 -27 13 -40 30 l-24 29 49 -1 c26 0 57 -4 68 -9z m115 0 c0
-6 16 -20 35 -31 35 -21 46 -39 23 -39 -14 0 -78 59 -78 72 0 4 5 8 10 8 6 0
10 -5 10 -10z m283 -23 c-23 -108 -62 -171 -92 -152 -9 5 49 146 71 172 15 18
27 7 21 -20z m877 -32 c-19 -23 -711 -23 -730 0 -11 13 31 15 365 15 334 0
376 -2 365 -15z m315 -73 c-7 -7 -49 38 -66 73 -6 11 8 1 31 -23 23 -24 39
-46 35 -50z m-110 18 c9 -16 13 -30 11 -30 -3 0 -12 14 -21 30 -9 17 -13 30
-11 30 3 0 12 -13 21 -30z m-291 11 c-46 -42 -554 -41 -554 1 0 5 127 8 282 8
158 0 278 -4 272 -9z m364 -46 c-3 -3 -9 2 -12 12 -6 14 -5 15 5 6 7 -7 10
-15 7 -18z m170 -11 c12 -8 22 -19 22 -23 0 -5 -29 -12 -65 -16 -36 -4 -99
-15 -141 -25 -41 -9 -77 -14 -79 -9 -7 11 65 59 88 59 10 0 25 7 33 15 21 20
113 20 142 -1z m-752 -9 c-11 -8 -41 -15 -66 -15 -25 0 -55 7 -66 15 -17 13
-11 14 66 14 77 0 83 -1 66 -14z m464 -23 c0 -7 -4 -10 -10 -7 -5 3 -10 16
-10 28 0 18 2 19 10 7 5 -8 10 -21 10 -28z m345 -22 c5 -9 -35 -23 -106 -36
-18 -4 -41 -11 -50 -15 -10 -5 -35 -3 -60 5 l-44 13 30 12 c53 22 220 38 230
21z m-645 -30 c11 -11 20 -24 20 -30 0 -17 -19 -11 -30 10 -31 58 -92 -18 -69
-87 12 -38 34 -52 52 -34 14 14 40 14 35 -1 -2 -6 -14 -15 -27 -20 -18 -6 -28
-2 -52 21 -23 24 -29 38 -29 73 0 75 56 112 100 68z m-391 -14 c31 -33 37 -85
16 -130 -18 -38 -58 -57 -78 -37 -8 8 -4 11 15 11 14 0 31 7 38 15 19 23 18
101 -1 121 -24 23 -58 9 -66 -27 -6 -30 -23 -40 -23 -14 0 22 27 72 42 78 24
10 35 7 57 -17z m62 -51 c5 -55 -1 -93 -13 -98 -10 -3 -13 15 -13 74 0 61 3
76 12 66 7 -7 13 -25 14 -42z m214 8 c0 -27 4 -59 9 -72 5 -16 5 -21 -3 -17
-20 13 -33 79 -22 109 6 15 12 27 13 27 2 0 3 -21 3 -47z m-184 -8 c4 -46 0
-85 -8 -85 -5 0 -8 29 -8 65 0 63 12 78 16 20z m-101 9 c6 -14 10 -33 10 -41
0 -14 -4 -13 -23 5 -13 12 -29 22 -35 22 -15 0 -15 13 0 28 19 19 38 14 48
-14z m134 10 c9 -24 7 -77 -4 -94 -5 -8 -10 -13 -10 -10 -1 3 -2 31 -3 63 -2
56 5 73 17 41z m80 1 c-4 -8 -17 -15 -30 -15 -15 0 -24 6 -24 15 0 10 10 15
30 15 22 0 28 -4 24 -15z m51 -86 c5 -7 3 -10 -6 -7 -9 3 -15 23 -16 59 l-1
54 8 -47 c4 -26 11 -52 15 -59z m236 30 c135 -65 204 -110 186 -121 -11 -6
-36 5 -87 38 -40 25 -105 62 -146 80 -41 19 -74 37 -74 39 0 14 45 1 121 -36z
m-299 19 c-9 -9 -15 -9 -24 0 -9 9 -7 12 12 12 19 0 21 -3 12 -12z m-237 -16
c-36 -32 -258 -162 -277 -162 -16 0 -19 3 -11 11 19 19 267 158 283 159 8 0
10 -3 5 -8z m482 -18 c86 -37 206 -115 196 -125 -6 -6 -36 8 -76 34 -36 24
-95 57 -131 73 -36 16 -66 32 -66 37 0 12 17 8 77 -19z m-244 9 c-7 -2 -19 -2
-25 0 -7 3 -2 5 12 5 14 0 19 -2 13 -5z m-213 -8 c0 -8 -242 -166 -247 -161
-12 12 0 21 107 90 104 68 140 86 140 71z m230 -15 c0 -5 -14 -10 -31 -10 -17
0 -28 4 -24 10 3 6 17 10 31 10 13 0 24 -4 24 -10z m-225 -19 c-3 -6 -11 -11
-17 -11 -6 0 -6 6 2 15 14 17 26 13 15 -4z m245 -21 c0 -5 -22 -10 -50 -10
-27 0 -50 5 -50 10 0 6 23 10 50 10 28 0 50 -4 50 -10z m-143 -112 c-2 -18 -4
-6 -4 27 0 33 2 48 4 33 2 -15 2 -42 0 -60z m30 0 c-2 -18 -4 -6 -4 27 0 33 2
48 4 33 2 -15 2 -42 0 -60z m51 50 c-2 -22 -9 -34 -20 -36 -15 -3 -18 4 -18
32 0 30 4 36 21 36 17 0 20 -5 17 -32z m62 -4 c0 -28 -3 -35 -17 -32 -11 2
-18 13 -19 28 0 32 4 40 22 40 9 0 14 -11 14 -36z m30 -19 c0 -30 -4 -55 -10
-55 -11 0 -14 93 -3 103 12 12 13 8 13 -48z m30 0 c0 -30 -4 -55 -10 -55 -11
0 -14 93 -3 103 12 12 13 8 13 -48z m30 -1 c0 -34 -4 -53 -10 -49 -18 11 -12
105 7 105 2 0 3 -25 3 -56z m-255 1 c0 -25 -3 -45 -7 -45 -5 0 -8 20 -8 45 0
25 3 45 8 45 4 0 7 -20 7 -45z m-25 -2 c0 -20 -3 -24 -11 -16 -7 7 -9 19 -6
27 10 24 17 19 17 -11z m307 -20 c-3 -10 -5 -2 -5 17 0 19 2 27 5 18 2 -10 2
-26 0 -35z m-147 -8 c10 -12 9 -16 -5 -21 -19 -8 -40 9 -31 25 10 15 21 14 36
-4z m-43 -31 c-3 -3 -12 -4 -19 -1 -8 3 -5 6 6 6 11 1 17 -2 13 -5z"/>
<path d="M1560 2350 c0 -5 9 -10 20 -10 11 0 20 5 20 10 0 6 -9 10 -20 10 -11
0 -20 -4 -20 -10z"/>
<path d="M1540 2310 c0 -5 6 -10 14 -10 8 0 18 5 21 10 3 6 -3 10 -14 10 -12
0 -21 -4 -21 -10z"/>
<path d="M1285 2300 c-3 -5 3 -10 14 -10 12 0 21 5 21 10 0 6 -6 10 -14 10 -8
0 -18 -4 -21 -10z"/>
<path d="M1315 2270 c3 -5 12 -7 20 -3 21 7 19 13 -6 13 -11 0 -18 -4 -14 -10z"/>
<path d="M1390 2320 c0 -11 7 -20 15 -20 8 0 15 9 15 20 0 11 -7 20 -15 20 -8
0 -15 -9 -15 -20z"/>
<path d="M1447 2326 c-6 -15 1 -26 15 -26 4 0 8 9 8 20 0 23 -15 27 -23 6z"/>
<path d="M1430 2275 c0 -8 5 -15 10 -15 6 0 10 7 10 15 0 8 -4 15 -10 15 -5 0
-10 -7 -10 -15z"/>
<path d="M1640 2320 c0 -11 7 -20 15 -20 8 0 15 9 15 20 0 11 -7 20 -15 20 -8
0 -15 -9 -15 -20z"/>
<path d="M1690 2320 c0 -11 7 -20 15 -20 8 0 15 9 15 20 0 11 -7 20 -15 20 -8
0 -15 -9 -15 -20z"/>
<path d="M1666 2283 c-11 -11 -6 -23 9 -23 8 0 15 4 15 9 0 13 -16 22 -24 14z"/>
<path d="M1780 2300 c0 -5 7 -10 15 -10 8 0 15 5 15 10 0 6 -7 10 -15 10 -8 0
-15 -4 -15 -10z"/>
<path d="M1810 2270 c0 -5 7 -10 16 -10 8 0 12 5 9 10 -3 6 -10 10 -16 10 -5
0 -9 -4 -9 -10z"/>
<path d="M1182 2293 c5 -25 28 -28 28 -4 0 12 -6 21 -16 21 -9 0 -14 -7 -12
-17z"/>
<path d="M1132 2283 c5 -25 28 -28 28 -4 0 12 -6 21 -16 21 -9 0 -14 -7 -12
-17z"/>
<path d="M1176 2251 c-4 -7 -5 -15 -2 -18 9 -9 19 4 14 18 -4 11 -6 11 -12 0z"/>
<path d="M1886 2313 c-11 -11 -6 -23 9 -23 8 0 15 4 15 9 0 13 -16 22 -24 14z"/>
<path d="M1925 2310 c-4 -6 -3 -16 3 -22 6 -6 12 -6 17 2 4 6 3 16 -3 22 -6 6
-12 6 -17 -2z"/>
<path d="M1895 2261 c-3 -5 -1 -12 5 -16 5 -3 10 1 10 9 0 18 -6 21 -15 7z"/>
<path d="M1460 2170 c0 -5 9 -10 20 -10 11 0 20 5 20 10 0 6 -9 10 -20 10 -11
0 -20 -4 -20 -10z"/>
<path d="M1530 2170 c0 -5 9 -10 20 -10 11 0 20 5 20 10 0 6 -9 10 -20 10 -11
0 -20 -4 -20 -10z"/>
<path d="M1610 2170 c0 -5 9 -10 21 -10 11 0 17 5 14 10 -3 6 -13 10 -21 10
-8 0 -14 -4 -14 -10z"/>
<path d="M1330 2160 c-12 -8 -10 -10 8 -10 13 0 20 4 17 10 -7 12 -6 12 -25 0z"/>
<path d="M1754 2159 c-3 -5 6 -9 20 -9 31 0 34 6 6 13 -11 3 -23 1 -26 -4z"/>
<path d="M1260 2150 c0 -5 6 -10 14 -10 8 0 18 5 21 10 3 6 -3 10 -14 10 -12
0 -21 -4 -21 -10z"/>
<path d="M1820 2150 c0 -5 9 -10 21 -10 11 0 17 5 14 10 -3 6 -13 10 -21 10
-8 0 -14 -4 -14 -10z"/>
<path d="M1190 2140 c0 -13 11 -13 30 0 12 8 11 10 -7 10 -13 0 -23 -4 -23
-10z"/>
<path d="M1355 2130 c-3 -5 3 -10 14 -10 12 0 21 5 21 10 0 6 -6 10 -14 10 -8
0 -18 -4 -21 -10z"/>
<path d="M1498 2133 c6 -2 18 -2 25 0 6 3 1 5 -13 5 -14 0 -19 -2 -12 -5z"/>
<path d="M1568 2133 c6 -2 18 -2 25 0 6 3 1 5 -13 5 -14 0 -19 -2 -12 -5z"/>
<path d="M1643 2133 c9 -2 23 -2 30 0 6 3 -1 5 -18 5 -16 0 -22 -2 -12 -5z"/>
<path d="M1710 2129 c0 -5 9 -9 20 -9 11 0 20 2 20 4 0 2 -9 6 -20 9 -11 3
-20 1 -20 -4z"/>
<path d="M1245 2120 c-19 -8 -19 -9 3 -9 12 -1 22 4 22 9 0 6 -1 10 -2 9 -2 0
-12 -4 -23 -9z"/>
<path d="M1290 2120 c0 -5 6 -10 14 -10 8 0 18 5 21 10 3 6 -3 10 -14 10 -12
0 -21 -4 -21 -10z"/>
<path d="M1790 2120 c0 -5 10 -10 23 -10 18 0 19 2 7 10 -19 13 -30 13 -30 0z"/>
<path d="M1870 2110 c20 -13 33 -13 25 0 -3 6 -14 10 -23 10 -15 0 -15 -2 -2
-10z"/>
<path d="M2071 1516 c-15 -18 -8 -44 14 -52 21 -9 47 15 43 40 -4 26 -40 33
-57 12z m49 -17 c0 -12 -29 -24 -37 -16 -3 4 -3 13 0 21 6 16 37 11 37 -5z"/>
<path d="M930 1505 c-18 -22 -1 -50 31 -50 20 0 24 5 24 30 0 23 -5 31 -21 33
-11 2 -27 -4 -34 -13z m48 -18 c2 -12 -3 -17 -17 -17 -12 0 -21 6 -21 13 0 31
32 34 38 4z"/>
<path d="M2221 1843 c0 -13 -6 -23 -12 -23 -5 0 -7 5 -4 10 3 6 1 10 -4 10
-14 0 -14 -17 0 -26 15 -9 32 11 26 32 -4 16 -5 15 -6 -3z"/>
<path d="M2573 1757 c-14 -30 -36 -137 -30 -143 3 -3 8 14 12 38 4 23 14 60
21 82 16 43 13 59 -3 23z"/>
<path d="M2708 1373 c7 -3 16 -2 19 1 4 3 -2 6 -13 5 -11 0 -14 -3 -6 -6z"/>
<path d="M2668 1363 c7 -3 16 -2 19 1 4 3 -2 6 -13 5 -11 0 -14 -3 -6 -6z"/>
<path d="M2852 1194 c-5 -11 -17 -42 -26 -70 -27 -84 -84 -181 -144 -245 l-55
-60 17 -30 c9 -16 15 -33 12 -38 -4 -5 -43 -34 -89 -64 -45 -29 -107 -76 -137
-104 -116 -106 -196 -140 -395 -168 -113 -15 -177 -31 -240 -60 -118 -53 -140
-59 -235 -59 -73 0 -116 6 -185 26 -136 39 -230 58 -340 68 -55 5 -125 16
-155 25 -51 16 -181 84 -243 127 -15 11 -55 31 -90 45 -64 26 -78 38 -71 58 3
7 -28 49 -69 93 -62 67 -81 97 -117 181 -24 56 -46 101 -50 101 -3 0 -16 -30
-28 -67 -34 -104 -29 -102 -117 -53 -42 23 -79 39 -82 36 -16 -16 89 -241 143
-305 29 -35 30 -48 3 -77 -27 -28 -16 -47 66 -113 63 -51 102 -73 198 -111 32
-12 95 -48 140 -78 158 -106 231 -130 483 -156 76 -8 166 -22 199 -32 171 -48
206 -55 280 -61 96 -7 153 6 319 72 91 36 143 49 253 66 266 39 300 54 497
222 38 32 128 98 200 147 127 86 166 121 199 187 16 31 16 32 -8 51 -14 11
-25 23 -25 27 0 4 20 39 44 79 25 39 53 98 64 131 23 67 38 155 27 155 -4 0
-36 -16 -71 -36 -35 -19 -71 -34 -79 -32 -9 2 -27 30 -40 62 -29 72 -40 84
-53 60z m49 -96 c24 -62 38 -67 97 -35 67 37 76 35 69 -10 -8 -48 -77 -189
-113 -231 l-29 -33 -69 46 c-73 48 -85 51 -118 34 -11 -6 -22 -9 -24 -7 -2 3
18 36 44 74 43 61 78 133 97 203 9 29 23 16 46 -41z m-2531 -350 c22 -28 37
-55 33 -59 -4 -4 -30 -3 -56 3 l-48 12 -48 -48 -48 -47 -31 35 c-61 70 -146
235 -129 252 4 4 29 -5 57 -20 70 -38 90 -33 113 29 10 28 20 57 23 65 4 9 23
-21 49 -78 24 -51 62 -116 85 -144z m2538 15 c34 -24 62 -49 62 -54 0 -24
-110 -123 -218 -195 -99 -66 -176 -126 -276 -216 -32 -29 -153 -88 -209 -103
-28 -7 -79 -16 -112 -20 -153 -17 -255 -44 -413 -110 -55 -23 -78 -26 -185
-28 -113 -1 -132 1 -252 35 -97 28 -170 41 -290 53 -88 8 -173 19 -190 24 -78
23 -149 58 -247 122 -59 38 -137 81 -175 95 -91 34 -139 64 -192 117 l-44 46
68 75 c38 42 70 76 72 76 3 0 19 -11 37 -25 18 -13 63 -36 100 -50 87 -33 126
-53 266 -136 123 -73 233 -109 334 -109 60 0 278 -43 354 -70 75 -27 187 -36
249 -21 26 7 82 28 123 46 86 39 211 70 320 81 82 7 211 49 262 85 18 13 60
48 93 78 33 31 105 86 160 122 55 37 120 87 144 113 51 52 37 55 159 -31z
m-193 37 c-14 -15 -21 -17 -31 -9 -19 16 -8 29 23 29 25 0 26 0 8 -20z"/>
<path d="M2860 1086 c0 -2 7 -6 15 -10 8 -3 15 -1 15 4 0 6 -7 10 -15 10 -8 0
-15 -2 -15 -4z"/>
<path d="M2864 1055 c11 -8 22 -12 25 -9 6 6 -19 24 -34 24 -5 -1 -1 -7 9 -15z"/>
<path d="M2840 1045 c0 -3 36 -23 80 -45 44 -22 80 -38 80 -35 0 3 -36 23 -80
45 -44 22 -80 38 -80 35z"/>
<path d="M3010 1040 c8 -5 20 -10 25 -10 6 0 3 5 -5 10 -8 5 -19 10 -25 10 -5
0 -3 -5 5 -10z"/>
<path d="M2981 1026 c2 -2 15 -9 29 -15 24 -11 24 -11 6 3 -16 13 -49 24 -35
12z"/>
<path d="M2900 980 c41 -21 80 -39 85 -39 6 0 -24 18 -65 39 -41 21 -79 39
-85 39 -5 0 24 -18 65 -39z"/>
<path d="M2979 1000 c13 -11 27 -20 32 -20 18 0 8 10 -23 25 l-33 16 24 -21z"/>
<path d="M2820 992 c0 -10 151 -85 157 -78 3 3 -31 23 -76 45 -45 23 -81 38
-81 33z"/>
<path d="M2810 964 c0 -2 36 -22 80 -44 44 -22 80 -36 80 -32 0 5 -36 25 -80
45 -44 19 -80 34 -80 31z"/>
<path d="M239 912 c10 -8 11 -10 1 -14 -8 -2 -14 -12 -16 -21 -2 -14 3 -16 19
-12 19 5 19 4 -3 -9 -28 -17 -19 -22 11 -6 16 9 17 14 7 33 -6 12 -10 24 -9
27 1 2 -3 6 -11 8 -10 3 -10 2 1 -6z"/>
<path d="M82 843 c-9 -3 -5 -12 13 -29 14 -13 23 -24 20 -24 -3 0 0 -6 7 -14
11 -11 24 -8 85 22 90 45 89 54 -2 13 -79 -36 -89 -38 -55 -10 14 11 19 18 13
14 -7 -3 -21 -1 -30 4 -10 6 -13 11 -8 11 6 0 3 5 -5 10 -16 11 -19 11 -38 3z
m48 -33 c8 -5 11 -10 5 -10 -5 0 -17 5 -25 10 -8 5 -10 10 -5 10 6 0 17 -5 25
-10z"/>
<path d="M2786 741 c-17 -19 -17 -22 15 -65 18 -25 35 -46 39 -46 4 0 15 9 25
20 10 11 13 20 7 20 -6 0 -14 -5 -18 -12 -5 -8 -11 -5 -20 7 -12 16 -11 21 3
37 17 19 5 26 -13 8 -8 -8 -15 -6 -24 4 -10 13 -9 17 4 22 9 3 16 10 16 15 0
15 -16 10 -34 -10z"/>
<path d="M2710 694 c-11 -13 -10 -23 8 -60 19 -39 26 -45 50 -42 19 2 28 9 30
26 2 12 -1 22 -7 22 -6 0 -11 -6 -11 -14 0 -29 -19 -25 -39 8 -29 46 -27 58 7
50 24 -7 26 -6 13 9 -17 21 -35 22 -51 1z"/>
<path d="M2614 632 l-22 -18 34 -47 c19 -26 39 -47 44 -47 15 0 12 11 -7 32
-15 17 -15 20 -3 29 11 6 20 3 32 -11 9 -11 19 -20 22 -20 13 0 5 30 -11 42
-10 7 -23 22 -29 33 -15 26 -34 29 -60 7z m44 -25 c2 -10 -3 -17 -12 -17 -18
0 -29 16 -21 31 9 14 29 6 33 -14z"/>
<path d="M328 578 c-3 -7 -1 -26 3 -43 9 -30 -1 -52 -19 -41 -6 3 -8 15 -5 26
7 25 -12 27 -22 3 -9 -26 30 -56 56 -42 17 9 19 17 13 56 -5 33 -4 44 5 39 6
-4 11 -14 11 -22 0 -8 5 -14 11 -14 6 0 9 10 7 23 -3 25 -53 38 -60 15z"/>
<path d="M2541 571 l-24 -18 20 -29 c12 -16 30 -38 42 -48 20 -18 22 -18 41
-1 11 10 20 23 20 28 0 6 -8 3 -19 -7 -16 -15 -19 -15 -31 -1 -10 12 -10 19
-2 27 19 19 14 29 -8 16 -25 -16 -38 -3 -21 23 17 28 11 31 -18 10z"/>
<path d="M414 534 c3 -8 -6 -35 -20 -60 -33 -55 -13 -58 22 -3 16 26 30 39 40
35 23 -9 16 10 -11 28 -31 20 -39 20 -31 0z"/>
<path d="M2483 518 c-8 -10 -8 -20 2 -38 22 -38 18 -43 -15 -18 -23 16 -33 19
-42 10 -8 -8 -2 -23 27 -58 22 -26 41 -42 43 -35 2 7 -5 22 -15 34 -39 43 -37
52 4 20 22 -18 44 -33 47 -33 4 0 -5 24 -19 53 l-26 52 32 -37 c29 -35 50 -48
49 -30 -1 4 -18 26 -39 50 -30 34 -40 40 -48 30z"/>
<path d="M565 410 c-20 -37 -30 -49 -33 -37 -2 9 -8 17 -13 17 -21 0 -3 -35
19 -38 18 -3 26 5 42 44 30 68 18 79 -15 14z"/>
<path d="M2383 434 c-3 -8 -1 -26 6 -40 17 -38 14 -40 -19 -9 -22 22 -33 26
-41 18 -9 -9 -4 -25 21 -62 17 -28 36 -48 41 -45 5 3 -5 26 -22 52 l-32 47 41
-39 c23 -22 44 -37 47 -34 4 3 -1 23 -10 43 -20 50 -13 55 15 10 12 -19 26
-33 31 -30 9 6 -51 105 -64 105 -4 0 -10 -7 -14 -16z"/>
<path d="M608 383 l-21 -47 22 -17 c28 -23 44 -16 64 27 21 44 22 70 1 78 -33
13 -46 5 -66 -41z m62 12 c0 -22 -28 -75 -40 -75 -18 0 -20 20 -6 55 15 35 46
49 46 20z"/>
<path d="M714 376 c-3 -8 2 -29 11 -46 12 -24 14 -35 6 -43 -9 -9 -13 -6 -17
11 -8 29 -26 29 -22 0 2 -17 11 -24 31 -26 36 -4 46 22 24 61 -20 33 -11 60 9
32 16 -21 30 -14 21 10 -8 19 -56 20 -63 1z"/>
<path d="M2260 375 c-14 -17 -7 -72 14 -100 9 -13 20 -16 39 -11 34 8 36 46 7
94 -21 35 -41 40 -60 17z m44 -27 c20 -27 21 -68 3 -68 -16 0 -37 41 -37 70 0
26 15 25 34 -2z"/>
<path d="M795 305 c-10 -30 -16 -57 -14 -59 2 -3 17 -8 33 -12 21 -5 27 -4 22
5 -4 6 -14 11 -22 11 -16 0 -18 9 -5 29 5 8 16 11 25 8 21 -8 21 2 -1 18 -21
15 -8 38 18 30 10 -4 19 -2 19 3 0 8 -31 21 -50 22 -3 0 -14 -25 -25 -55z"/>
<path d="M2177 353 c-15 -14 -6 -81 12 -104 16 -20 23 -22 38 -13 20 13 30 44
14 44 -6 0 -11 -7 -11 -15 0 -8 -6 -15 -14 -15 -14 0 -26 29 -26 68 0 19 4 21
28 16 24 -7 26 -6 13 9 -14 17 -42 22 -54 10z"/>
<path d="M2049 333 c0 -5 0 -30 1 -58 2 -56 20 -89 20 -37 0 25 4 32 20 32 11
0 20 5 20 10 0 6 -9 10 -20 10 -11 0 -20 7 -20 15 0 8 6 15 14 15 8 0 18 5 21
10 4 6 -7 10 -24 10 -17 0 -31 -3 -32 -7z"/>
<path d="M881 289 c-7 -23 -15 -47 -18 -55 -3 -8 0 -14 5 -14 6 0 14 9 17 20
4 14 15 20 35 20 37 0 52 36 24 57 -32 23 -50 16 -63 -28z m53 13 c2 -4 1 -14
-4 -22 -7 -11 -12 -12 -21 -3 -6 6 -8 16 -5 22 8 13 23 14 30 3z"/>
<path d="M1931 306 c-9 -11 -9 -25 -2 -54 13 -48 30 -63 60 -55 21 5 23 10 18
49 -2 24 -10 51 -17 59 -16 19 -44 19 -59 1z m53 -28 c10 -40 7 -68 -9 -68
-14 0 -38 66 -29 82 10 16 32 8 38 -14z"/>
<path d="M967 250 c-12 -49 -12 -60 -2 -60 8 0 15 10 17 23 5 37 33 28 30 -10
-4 -54 14 -37 31 27 9 36 11 60 5 60 -5 0 -12 -9 -15 -20 -8 -32 -39 -21 -35
13 5 50 -15 28 -31 -33z"/>
<path d="M1080 270 c0 -5 5 -10 10 -10 6 0 10 5 10 10 0 6 -4 10 -10 10 -5 0
-10 -4 -10 -10z"/>
<path d="M1810 267 c-14 -6 -26 -12 -28 -13 -5 -2 41 -114 47 -114 3 1 17 8
31 16 24 15 24 15 2 11 -28 -6 -53 29 -27 39 22 9 18 23 -5 17 -25 -7 -28 22
-3 36 26 14 12 20 -17 8z"/>
<path d="M1123 254 c-3 -8 4 -28 16 -44 11 -16 21 -34 21 -40 0 -16 -18 -12
-29 7 -11 21 -26 11 -17 -12 8 -23 60 -16 64 8 2 11 -6 29 -18 42 -13 14 -19
29 -15 36 6 9 12 7 21 -6 16 -21 30 -14 21 10 -8 20 -56 20 -64 -1z"/>
<path d="M1266 241 c-4 -5 -9 -30 -12 -54 -6 -39 -4 -46 15 -57 26 -13 51 1
51 29 -1 14 -3 13 -15 -3 -21 -28 -38 -10 -30 33 9 50 16 57 31 36 16 -21 27
-16 18 9 -7 17 -49 22 -58 7z"/>
<path d="M1360 215 c-22 -57 -7 -105 32 -105 25 0 40 34 36 83 -3 37 -6 42
-30 45 -22 3 -30 -2 -38 -23z m48 -37 c-2 -31 -8 -44 -20 -46 -15 -3 -18 4
-18 36 0 42 5 52 27 52 10 0 13 -11 11 -42z"/>
<path d="M1704 227 c-3 -8 -18 -11 -46 -9 -39 4 -41 3 -35 -19 4 -13 7 -41 7
-61 0 -35 2 -38 30 -38 17 0 30 5 30 10 0 6 -8 10 -17 8 -12 -2 -19 4 -21 20
-3 17 2 22 20 23 23 1 23 1 -2 8 -31 9 -33 35 -3 39 18 3 24 -4 33 -36 14 -54
33 -69 65 -52 20 11 23 18 18 39 -8 34 -9 34 -28 23 -16 -8 -16 -10 -1 -15 16
-6 12 -37 -6 -37 -13 0 -40 68 -32 81 3 6 17 8 30 5 18 -5 22 -3 18 9 -7 18
-53 20 -60 2z"/>
<path d="M1460 186 c0 -24 -3 -51 -6 -60 -5 -13 1 -16 32 -15 32 1 35 2 14 8
-22 6 -24 11 -21 59 1 32 -2 52 -8 52 -6 0 -11 -19 -11 -44z"/>
<path d="M1547 173 c-3 -31 -4 -60 -1 -65 3 -4 19 -8 35 -8 18 0 28 4 24 10
-3 6 -15 10 -27 10 -18 0 -19 4 -13 49 4 28 3 51 -3 55 -5 3 -12 -20 -15 -51z"/>
</g>
</svg>
