<svg xmlns="http://www.w3.org/2000/svg" viewBox="0 0 150 150" role="img" aria-label="College logo">
  <defs>
    <style>
      .s{fill:none;stroke:#6d6c9f;stroke-width:2.2}
      .t{fill:#6d6c9f;font-family:Georgia,serif}
    </style>
  </defs>
  <path class="s" d="M18 24c20-20 94-20 114 0-10 8-20 12-57 12S30 32 18 24z"/>
  <text class="t" x="75" y="30" text-anchor="middle" font-size="10">FIDE ET LABORE</text>
  <circle class="s" cx="75" cy="74" r="40"/>
  <circle class="s" cx="75" cy="74" r="30"/>
  <rect class="s" x="63" y="54" width="24" height="40"/>
  <path class="s" d="M75 58v32M67 74h16"/>
  <text class="t" x="75" y="87" text-anchor="middle" font-size="9">SJCC</text>
  <path class="s" d="M35 102c8 14 18 22 28 24M115 102c-8 14-18 22-28 24"/>
  <path class="s" d="M24 126c26 20 76 20 102 0"/>
  <text class="t" x="75" y="134" text-anchor="middle" font-size="7">ST JOSEPH'S COLLEGE OF COMMERCE</text>
</svg>
